# xmcd CD database file
#
# Track frame offsets:
#	150
#	18792
#	44844
#	69824
#	87954
#	104043
#	116036
#	134826
#	157281
#	178465
#	192671
#	210162
#	235716
#
# Disc length: 3428 seconds
#
# Revision: 0
# Processed by: cddbd v1.5.1PL2 Copyright (c) Steve Scherf et al.
# Submitted via: Feurio! 1.68 - http://www.feurio.com
#
DISCID=c30d620d
DTITLE=Eva Cassidy - Live At Blues Alley
DYEAR=1900
DGENRE=
TTITLE0=Cheek To Cheek
TTITLE1=Stormy Monday
TTITLE2=Bridge Over Troubled Water
TTITLE3=Fine And Mellow
TTITLE4=People Get Ready
TTITLE5=Blue Skies
TTITLE6=Tall Trees In Georgia
TTITLE7=Fields Of Gold
TTITLE8=Autumn Leaves
TTITLE9=Honeysuckle Rose
TTITLE10=Take Me To A River
TTITLE11=What A Wonderful World
TTITLE12=Oh, Had I A Golden Thread
EXTD=
EXTT0=
EXTT1=
EXTT2=
EXTT3=
EXTT4=
EXTT5=
EXTT6=
EXTT7=
EXTT8=
EXTT9=
EXTT10=
EXTT11=
EXTT12=
PLAYORDER=
